<?xml version="1.0" encoding="UTF-8"?>
<svg version="1.1" xmlns="http://www.w3.org/2000/svg" width="42" height="42">
<path d="M0 0 C2.97 0 5.94 0 9 0 C9 1.98 9 3.96 9 6 C9.99 6 10.98 6 12 6 C12 4.02 12 2.04 12 0 C17.94 0 23.88 0 30 0 C30 4.95 30 9.9 30 15 C29.01 15 28.02 15 27 15 C27 15.99 27 16.98 27 18 C26.01 18 25.02 18 24 18 C24 21.96 24 25.92 24 30 C24.99 30 25.98 30 27 30 C27 30.99 27 31.98 27 33 C27.99 33 28.98 33 30 33 C30 33.99 30 34.98 30 36 C30.99 36 31.98 36 33 36 C33 37.98 33 39.96 33 42 C21.12 42 9.24 42 -3 42 C-3 40.02 -3 38.04 -3 36 C-2.01 36 -1.02 36 0 36 C0 35.01 0 34.02 0 33 C0.99 33 1.98 33 3 33 C3 32.01 3 31.02 3 30 C3.99 30 4.98 30 6 30 C6 26.04 6 22.08 6 18 C5.01 18 4.02 18 3 18 C3 17.01 3 16.02 3 15 C2.01 15 1.02 15 0 15 C0 10.05 0 5.1 0 0 Z " fill="#020202" transform="translate(6,0)"/>
<path d="M0 0 C2.97 0 5.94 0 9 0 C9 1.98 9 3.96 9 6 C9.99 6 10.98 6 12 6 C12 4.02 12 2.04 12 0 C17.94 0 23.88 0 30 0 C30 4.95 30 9.9 30 15 C29.01 15 28.02 15 27 15 C27 15.99 27 16.98 27 18 C25.02 18 23.04 18 21 18 C21 17.01 21 16.02 21 15 C16.05 15 11.1 15 6 15 C6 15.99 6 16.98 6 18 C5.01 18 4.02 18 3 18 C3 17.01 3 16.02 3 15 C2.01 15 1.02 15 0 15 C0 10.05 0 5.1 0 0 Z " fill="#000000" transform="translate(6,0)"/>
<path d="M0 0 C2.97 0 5.94 0 9 0 C9 2.97 9 5.94 9 9 C9.99 9 10.98 9 12 9 C12 10.98 12 12.96 12 15 C13.98 15 15.96 15 18 15 C18 15.99 18 16.98 18 18 C9.09 18 0.18 18 -9 18 C-9 16.02 -9 14.04 -9 12 C-8.01 12 -7.02 12 -6 12 C-6 11.01 -6 10.02 -6 9 C-4.02 9 -2.04 9 0 9 C0 6.03 0 3.06 0 0 Z " fill="#2F2F2F" transform="translate(15,21)"/>
<path d="M0 0 C0.99 0 1.98 0 3 0 C3 1.98 3 3.96 3 6 C5.97 6 8.94 6 12 6 C12 4.02 12 2.04 12 0 C14.97 0 17.94 0 21 0 C21 2.97 21 5.94 21 9 C14.07 9 7.14 9 0 9 C0 6.03 0 3.06 0 0 Z " fill="#333333" transform="translate(9,3)"/>
<path d="M0 0 C0.99 0 1.98 0 3 0 C3 0.99 3 1.98 3 3 C12.9 3 22.8 3 33 3 C33 2.01 33 1.02 33 0 C33.99 0 34.98 0 36 0 C36 1.98 36 3.96 36 6 C24.12 6 12.24 6 0 6 C0 4.02 0 2.04 0 0 Z " fill="#000000" transform="translate(3,36)"/>
<path d="M0 0 C4.95 0 9.9 0 15 0 C15 0.99 15 1.98 15 3 C15.99 3 16.98 3 18 3 C18 3.99 18 4.98 18 6 C12.06 6 6.12 6 0 6 C0 4.02 0 2.04 0 0 Z " fill="#454545" transform="translate(6,33)"/>
<path d="M0 0 C0.99 0 1.98 0 3 0 C3 1.98 3 3.96 3 6 C5.97 6 8.94 6 12 6 C12 6.99 12 7.98 12 9 C8.04 9 4.08 9 0 9 C0 6.03 0 3.06 0 0 Z " fill="#414141" transform="translate(9,3)"/>
<path d="M0 0 C4.95 0 9.9 0 15 0 C15 0.99 15 1.98 15 3 C10.05 3 5.1 3 0 3 C0 2.01 0 1.02 0 0 Z " fill="#2E2E2E" transform="translate(12,15)"/>
<path d="M0 0 C0.99 0 1.98 0 3 0 C3 0.99 3 1.98 3 3 C3.99 3 4.98 3 6 3 C6 3.99 6 4.98 6 6 C4.02 6 2.04 6 0 6 C0 4.02 0 2.04 0 0 Z " fill="#3F3F3F" transform="translate(18,33)"/>
<path d="M0 0 C0.99 0 1.98 0 3 0 C3 2.97 3 5.94 3 9 C2.01 9 1.02 9 0 9 C0 6.03 0 3.06 0 0 Z " fill="#141414" transform="translate(24,21)"/>
<path d="M0 0 C0.99 0 1.98 0 3 0 C3 2.97 3 5.94 3 9 C2.01 9 1.02 9 0 9 C0 6.03 0 3.06 0 0 Z " fill="#242424" transform="translate(21,21)"/>
<path d="M0 0 C0.99 0 1.98 0 3 0 C3 2.97 3 5.94 3 9 C2.01 9 1.02 9 0 9 C0 6.03 0 3.06 0 0 Z " fill="#101010" transform="translate(30,3)"/>
<path d="M0 0 C0.99 0 1.98 0 3 0 C3 2.97 3 5.94 3 9 C2.01 9 1.02 9 0 9 C0 6.03 0 3.06 0 0 Z " fill="#242424" transform="translate(27,3)"/>
<path d="M0 0 C0.99 0 1.98 0 3 0 C3 1.98 3 3.96 3 6 C2.01 6 1.02 6 0 6 C0 4.02 0 2.04 0 0 Z " fill="#1C1C1C" transform="translate(27,30)"/>
<path d="M0 0 C1.98 0 3.96 0 6 0 C6 0.99 6 1.98 6 3 C4.02 3 2.04 3 0 3 C0 2.01 0 1.02 0 0 Z " fill="#444444" transform="translate(12,15)"/>
<path d="M0 0 C0.99 0 1.98 0 3 0 C3 1.98 3 3.96 3 6 C2.01 6 1.02 6 0 6 C0 4.02 0 2.04 0 0 Z " fill="#565656" transform="translate(9,3)"/>
</svg>
