<?xml version="1.0" encoding="UTF-8"?>
<svg version="1.1" xmlns="http://www.w3.org/2000/svg" width="42" height="42">
<path d="M0 0 C1.98 0 3.96 0 6 0 C6 0.99 6 1.98 6 3 C6.99 3 7.98 3 9 3 C9 4.98 9 6.96 9 9 C8.01 9 7.02 9 6 9 C6 9.99 6 10.98 6 12 C6.99 12 7.98 12 9 12 C9 12.99 9 13.98 9 15 C9.99 15 10.98 15 12 15 C12 15.99 12 16.98 12 18 C12.99 18 13.98 18 15 18 C15 21.96 15 25.92 15 30 C14.01 30 13.02 30 12 30 C12 30.99 12 31.98 12 33 C12.99 33 13.98 33 15 33 C15 33.99 15 34.98 15 36 C15.99 36 16.98 36 18 36 C18 37.98 18 39.96 18 42 C8.1 42 -1.8 42 -12 42 C-12 40.02 -12 38.04 -12 36 C-11.01 36 -10.02 36 -9 36 C-9 35.01 -9 34.02 -9 33 C-8.01 33 -7.02 33 -6 33 C-6 32.01 -6 31.02 -6 30 C-6.99 30 -7.98 30 -9 30 C-9 26.04 -9 22.08 -9 18 C-8.01 18 -7.02 18 -6 18 C-6 17.01 -6 16.02 -6 15 C-5.01 15 -4.02 15 -3 15 C-3 14.01 -3 13.02 -3 12 C-2.01 12 -1.02 12 0 12 C0 11.01 0 10.02 0 9 C-0.99 9 -1.98 9 -3 9 C-3 7.02 -3 5.04 -3 3 C-2.01 3 -1.02 3 0 3 C0 2.01 0 1.02 0 0 Z M6 15 C6 15.99 6 16.98 6 18 C6.99 18 7.98 18 9 18 C9 17.01 9 16.02 9 15 C8.01 15 7.02 15 6 15 Z M3 18 C3 18.99 3 19.98 3 21 C3.99 21 4.98 21 6 21 C6 20.01 6 19.02 6 18 C5.01 18 4.02 18 3 18 Z " fill="#000000" transform="translate(18,0)"/>
<path d="M0 0 C1.98 0 3.96 0 6 0 C6 0.99 6 1.98 6 3 C6.99 3 7.98 3 9 3 C9 4.98 9 6.96 9 9 C8.01 9 7.02 9 6 9 C6 9.99 6 10.98 6 12 C6.99 12 7.98 12 9 12 C9 12.99 9 13.98 9 15 C8.01 15 7.02 15 6 15 C6 15.99 6 16.98 6 18 C5.01 18 4.02 18 3 18 C3 22.95 3 27.9 3 33 C1.02 33 -0.96 33 -3 33 C-3 32.01 -3 31.02 -3 30 C-4.98 30 -6.96 30 -9 30 C-9 26.04 -9 22.08 -9 18 C-8.01 18 -7.02 18 -6 18 C-6 17.01 -6 16.02 -6 15 C-5.01 15 -4.02 15 -3 15 C-3 14.01 -3 13.02 -3 12 C-2.01 12 -1.02 12 0 12 C0 11.01 0 10.02 0 9 C-0.99 9 -1.98 9 -3 9 C-3 7.02 -3 5.04 -3 3 C-2.01 3 -1.02 3 0 3 C0 2.01 0 1.02 0 0 Z " fill="#434343" transform="translate(18,0)"/>
<path d="M0 0 C1.98 0 3.96 0 6 0 C6 0.99 6 1.98 6 3 C6.99 3 7.98 3 9 3 C9 4.98 9 6.96 9 9 C8.01 9 7.02 9 6 9 C6 9.99 6 10.98 6 12 C6.99 12 7.98 12 9 12 C9 12.99 9 13.98 9 15 C8.01 15 7.02 15 6 15 C6 15.99 6 16.98 6 18 C5.01 18 4.02 18 3 18 C3 17.01 3 16.02 3 15 C1.02 15 -0.96 15 -3 15 C-3 14.01 -3 13.02 -3 12 C-2.01 12 -1.02 12 0 12 C0 11.01 0 10.02 0 9 C-0.99 9 -1.98 9 -3 9 C-3 7.02 -3 5.04 -3 3 C-2.01 3 -1.02 3 0 3 C0 2.01 0 1.02 0 0 Z " fill="#292929" transform="translate(18,0)"/>
<path d="M0 0 C0.99 0 1.98 0 3 0 C3 0.99 3 1.98 3 3 C10.92 3 18.84 3 27 3 C27 2.01 27 1.02 27 0 C27.99 0 28.98 0 30 0 C30 1.98 30 3.96 30 6 C20.1 6 10.2 6 0 6 C0 4.02 0 2.04 0 0 Z " fill="#000000" transform="translate(6,36)"/>
<path d="M0 0 C0.99 0 1.98 0 3 0 C3 0.99 3 1.98 3 3 C3.99 3 4.98 3 6 3 C6 6.96 6 10.92 6 15 C4.02 15 2.04 15 0 15 C0 12.03 0 9.06 0 6 C-0.99 6 -1.98 6 -3 6 C-3 5.01 -3 4.02 -3 3 C-2.01 3 -1.02 3 0 3 C0 2.01 0 1.02 0 0 Z " fill="#101010" transform="translate(27,15)"/>
<path d="M0 0 C1.98 0 3.96 0 6 0 C6 3.96 6 7.92 6 12 C4.02 12 2.04 12 0 12 C0 8.04 0 4.08 0 0 Z " fill="#242424" transform="translate(21,21)"/>
<path d="M0 0 C0.99 0 1.98 0 3 0 C3 4.95 3 9.9 3 15 C1.02 15 -0.96 15 -3 15 C-3 12.03 -3 9.06 -3 6 C-2.01 6 -1.02 6 0 6 C0 4.02 0 2.04 0 0 Z " fill="#3C3C3C" transform="translate(18,18)"/>
<path d="M0 0 C4.95 0 9.9 0 15 0 C15 0.99 15 1.98 15 3 C10.05 3 5.1 3 0 3 C0 2.01 0 1.02 0 0 Z " fill="#353535" transform="translate(9,36)"/>
<path d="M0 0 C3.96 0 7.92 0 12 0 C12 0.99 12 1.98 12 3 C11.01 3 10.02 3 9 3 C9 3.99 9 4.98 9 6 C8.01 6 7.02 6 6 6 C6 5.01 6 4.02 6 3 C4.02 3 2.04 3 0 3 C0 2.01 0 1.02 0 0 Z " fill="#191919" transform="translate(15,12)"/>
<path d="M0 0 C0.99 0 1.98 0 3 0 C3 3.96 3 7.92 3 12 C2.01 12 1.02 12 0 12 C0 8.04 0 4.08 0 0 Z " fill="#000000" transform="translate(30,18)"/>
<path d="M0 0 C0.99 0 1.98 0 3 0 C3 3.96 3 7.92 3 12 C2.01 12 1.02 12 0 12 C0 8.04 0 4.08 0 0 Z " fill="#000000" transform="translate(9,18)"/>
<path d="M0 0 C2.97 0 5.94 0 9 0 C9 0.99 9 1.98 9 3 C6.03 3 3.06 3 0 3 C0 2.01 0 1.02 0 0 Z " fill="#181818" transform="translate(24,36)"/>
<path d="M0 0 C1.98 0 3.96 0 6 0 C6 0.99 6 1.98 6 3 C4.02 3 2.04 3 0 3 C0 2.01 0 1.02 0 0 Z " fill="#525252" transform="translate(9,36)"/>
<path d="M0 0 C1.98 0 3.96 0 6 0 C6 0.99 6 1.98 6 3 C4.02 3 2.04 3 0 3 C0 2.01 0 1.02 0 0 Z " fill="#000000" transform="translate(18,9)"/>
<path d="M0 0 C0.99 0 1.98 0 3 0 C3 1.98 3 3.96 3 6 C2.01 6 1.02 6 0 6 C0 4.02 0 2.04 0 0 Z " fill="#000000" transform="translate(24,3)"/>
<path d="M0 0 C0.99 0 1.98 0 3 0 C3 1.98 3 3.96 3 6 C2.01 6 1.02 6 0 6 C0 4.02 0 2.04 0 0 Z " fill="#000000" transform="translate(15,3)"/>
<path d="M0 0 C1.98 0 3.96 0 6 0 C6 0.99 6 1.98 6 3 C4.02 3 2.04 3 0 3 C0 2.01 0 1.02 0 0 Z " fill="#000000" transform="translate(18,0)"/>
</svg>
