<?xml version="1.0" encoding="UTF-8"?>
<svg version="1.1" xmlns="http://www.w3.org/2000/svg" width="42" height="42">
<path d="M0 0 C3.96 0 7.92 0 12 0 C12 0.99 12 1.98 12 3 C14.97 3 17.94 3 21 3 C21 3.99 21 4.98 21 6 C21.99 6 22.98 6 24 6 C24 6.99 24 7.98 24 9 C24.99 9 25.98 9 27 9 C27 14.94 27 20.88 27 27 C26.01 27 25.02 27 24 27 C24 29.97 24 32.94 24 36 C24.99 36 25.98 36 27 36 C27 37.98 27 39.96 27 42 C17.1 42 7.2 42 -3 42 C-3 40.02 -3 38.04 -3 36 C-2.01 36 -1.02 36 0 36 C0 34.02 0 32.04 0 30 C0.99 30 1.98 30 3 30 C3 29.01 3 28.02 3 27 C3.99 27 4.98 27 6 27 C6 26.01 6 25.02 6 24 C6.99 24 7.98 24 9 24 C9 23.01 9 22.02 9 21 C7.02 21 5.04 21 3 21 C3 21.99 3 22.98 3 24 C1.02 24 -0.96 24 -3 24 C-3 23.01 -3 22.02 -3 21 C-3.99 21 -4.98 21 -6 21 C-6 19.02 -6 17.04 -6 15 C-5.01 15 -4.02 15 -3 15 C-3 14.01 -3 13.02 -3 12 C-2.01 12 -1.02 12 0 12 C0 11.01 0 10.02 0 9 C0.99 9 1.98 9 3 9 C3 8.01 3 7.02 3 6 C2.01 6 1.02 6 0 6 C0 4.02 0 2.04 0 0 Z " fill="#2B2B2B" transform="translate(9,0)"/>
<path d="M0 0 C0.99 0 1.98 0 3 0 C3 0.99 3 1.98 3 3 C3.99 3 4.98 3 6 3 C6 8.94 6 14.88 6 21 C5.01 21 4.02 21 3 21 C3 23.97 3 26.94 3 30 C3.99 30 4.98 30 6 30 C6 31.98 6 33.96 6 36 C-3.9 36 -13.8 36 -24 36 C-24 34.02 -24 32.04 -24 30 C-23.01 30 -22.02 30 -21 30 C-21 28.02 -21 26.04 -21 24 C-20.01 24 -19.02 24 -18 24 C-18 24.99 -18 25.98 -18 27 C-12.06 27 -6.12 27 0 27 C0 18.09 0 9.18 0 0 Z " fill="#080808" transform="translate(30,6)"/>
<path d="M0 0 C1.98 0 3.96 0 6 0 C6 0.99 6 1.98 6 3 C6.99 3 7.98 3 9 3 C9 3.99 9 4.98 9 6 C9.99 6 10.98 6 12 6 C12 6.99 12 7.98 12 9 C12.99 9 13.98 9 15 9 C15 11.97 15 14.94 15 18 C14.01 18 13.02 18 12 18 C12 18.99 12 19.98 12 21 C11.01 21 10.02 21 9 21 C9 21.99 9 22.98 9 24 C7.02 24 5.04 24 3 24 C3 22.02 3 20.04 3 18 C3.99 18 4.98 18 6 18 C6 17.01 6 16.02 6 15 C6.99 15 7.98 15 9 15 C9 14.01 9 13.02 9 12 C7.02 12 5.04 12 3 12 C3 12.99 3 13.98 3 15 C1.02 15 -0.96 15 -3 15 C-3 14.01 -3 13.02 -3 12 C-3.99 12 -4.98 12 -6 12 C-6 10.02 -6 8.04 -6 6 C-5.01 6 -4.02 6 -3 6 C-3 5.01 -3 4.02 -3 3 C-2.01 3 -1.02 3 0 3 C0 2.01 0 1.02 0 0 Z " fill="#333333" transform="translate(9,9)"/>
<path d="M0 0 C0.99 0 1.98 0 3 0 C3 0.99 3 1.98 3 3 C10.92 3 18.84 3 27 3 C27 2.01 27 1.02 27 0 C27.99 0 28.98 0 30 0 C30 1.98 30 3.96 30 6 C20.1 6 10.2 6 0 6 C0 4.02 0 2.04 0 0 Z " fill="#000000" transform="translate(6,36)"/>
<path d="M0 0 C0.99 0 1.98 0 3 0 C3 1.98 3 3.96 3 6 C2.01 6 1.02 6 0 6 C0 7.98 0 9.96 0 12 C0.99 12 1.98 12 3 12 C3 12.99 3 13.98 3 15 C1.02 15 -0.96 15 -3 15 C-3 14.01 -3 13.02 -3 12 C-3.99 12 -4.98 12 -6 12 C-6 10.02 -6 8.04 -6 6 C-5.01 6 -4.02 6 -3 6 C-3 5.01 -3 4.02 -3 3 C-2.01 3 -1.02 3 0 3 C0 2.01 0 1.02 0 0 Z " fill="#525252" transform="translate(9,9)"/>
<path d="M0 0 C0.99 0 1.98 0 3 0 C3 5.94 3 11.88 3 18 C2.01 18 1.02 18 0 18 C0 12.06 0 6.12 0 0 Z " fill="#000000" transform="translate(33,9)"/>
<path d="M0 0 C4.95 0 9.9 0 15 0 C15 0.99 15 1.98 15 3 C10.05 3 5.1 3 0 3 C0 2.01 0 1.02 0 0 Z " fill="#2A2A2A" transform="translate(9,36)"/>
<path d="M0 0 C3.96 0 7.92 0 12 0 C12 0.99 12 1.98 12 3 C9.03 3 6.06 3 3 3 C3 3.99 3 4.98 3 6 C2.01 6 1.02 6 0 6 C0 4.02 0 2.04 0 0 Z " fill="#000000" transform="translate(9,0)"/>
<path d="M0 0 C0.99 0 1.98 0 3 0 C3 0.99 3 1.98 3 3 C3.99 3 4.98 3 6 3 C6 3.99 6 4.98 6 6 C5.01 6 4.02 6 3 6 C3 6.99 3 7.98 3 9 C2.01 9 1.02 9 0 9 C0 6.03 0 3.06 0 0 Z " fill="#404040" transform="translate(15,12)"/>
<path d="M0 0 C2.97 0 5.94 0 9 0 C9 0.99 9 1.98 9 3 C6.03 3 3.06 3 0 3 C0 2.01 0 1.02 0 0 Z " fill="#181818" transform="translate(24,36)"/>
<path d="M0 0 C0.99 0 1.98 0 3 0 C3 1.98 3 3.96 3 6 C1.02 6 -0.96 6 -3 6 C-3 5.01 -3 4.02 -3 3 C-2.01 3 -1.02 3 0 3 C0 2.01 0 1.02 0 0 Z " fill="#181818" transform="translate(27,27)"/>
<path d="M0 0 C0.99 0 1.98 0 3 0 C3 1.98 3 3.96 3 6 C1.02 6 -0.96 6 -3 6 C-3 5.01 -3 4.02 -3 3 C-2.01 3 -1.02 3 0 3 C0 2.01 0 1.02 0 0 Z " fill="#131313" transform="translate(9,9)"/>
<path d="M0 0 C2.97 0 5.94 0 9 0 C9 0.99 9 1.98 9 3 C6.03 3 3.06 3 0 3 C0 2.01 0 1.02 0 0 Z " fill="#000000" transform="translate(21,3)"/>
<path d="M0 0 C1.98 0 3.96 0 6 0 C6 0.99 6 1.98 6 3 C4.02 3 2.04 3 0 3 C0 2.01 0 1.02 0 0 Z " fill="#404040" transform="translate(9,36)"/>
<path d="M0 0 C1.98 0 3.96 0 6 0 C6 0.99 6 1.98 6 3 C4.02 3 2.04 3 0 3 C0 2.01 0 1.02 0 0 Z " fill="#000000" transform="translate(6,21)"/>
<path d="M0 0 C0.99 0 1.98 0 3 0 C3 1.98 3 3.96 3 6 C2.01 6 1.02 6 0 6 C0 4.02 0 2.04 0 0 Z " fill="#000000" transform="translate(18,18)"/>
<path d="M0 0 C0.99 0 1.98 0 3 0 C3 1.98 3 3.96 3 6 C2.01 6 1.02 6 0 6 C0 4.02 0 2.04 0 0 Z " fill="#000000" transform="translate(3,15)"/>
<path d="M0 0 C0.99 0 1.98 0 3 0 C3 1.98 3 3.96 3 6 C2.01 6 1.02 6 0 6 C0 4.02 0 2.04 0 0 Z " fill="#3B3B3B" transform="translate(21,9)"/>
</svg>
