<?xml version="1.0" encoding="UTF-8"?>
<svg version="1.1" xmlns="http://www.w3.org/2000/svg" width="42" height="42">
<path d="M0 0 C2.97 0 5.94 0 9 0 C9 0.99 9 1.98 9 3 C9.99 3 10.98 3 12 3 C12 3.99 12 4.98 12 6 C13.98 6 15.96 6 18 6 C18 5.01 18 4.02 18 3 C18.99 3 19.98 3 21 3 C21 2.01 21 1.02 21 0 C23.97 0 26.94 0 30 0 C30 0.99 30 1.98 30 3 C30.99 3 31.98 3 33 3 C33 6.96 33 10.92 33 15 C32.01 15 31.02 15 30 15 C30 16.98 30 18.96 30 21 C29.01 21 28.02 21 27 21 C27 22.98 27 24.96 27 27 C27.99 27 28.98 27 30 27 C30 28.98 30 30.96 30 33 C20.1 33 10.2 33 0 33 C0 31.02 0 29.04 0 27 C0.99 27 1.98 27 3 27 C3 25.02 3 23.04 3 21 C2.01 21 1.02 21 0 21 C0 19.02 0 17.04 0 15 C-0.99 15 -1.98 15 -3 15 C-3 11.04 -3 7.08 -3 3 C-2.01 3 -1.02 3 0 3 C0 2.01 0 1.02 0 0 Z M3 6 C3 7.98 3 9.96 3 12 C3.99 12 4.98 12 6 12 C6 12.99 6 13.98 6 15 C7.98 15 9.96 15 12 15 C12 14.01 12 13.02 12 12 C11.01 12 10.02 12 9 12 C9 11.01 9 10.02 9 9 C8.01 9 7.02 9 6 9 C6 8.01 6 7.02 6 6 C5.01 6 4.02 6 3 6 Z M9 6 C9 6.99 9 7.98 9 9 C9.99 9 10.98 9 12 9 C12 8.01 12 7.02 12 6 C11.01 6 10.02 6 9 6 Z M24 6 C24 6.99 24 7.98 24 9 C23.01 9 22.02 9 21 9 C21 9.99 21 10.98 21 12 C20.01 12 19.02 12 18 12 C18 12.99 18 13.98 18 15 C19.98 15 21.96 15 24 15 C24 14.01 24 13.02 24 12 C24.99 12 25.98 12 27 12 C27 10.02 27 8.04 27 6 C26.01 6 25.02 6 24 6 Z " fill="#414141" transform="translate(6,9)"/>
<path d="M0 0 C2.97 0 5.94 0 9 0 C9 0.99 9 1.98 9 3 C9.99 3 10.98 3 12 3 C12 3.99 12 4.98 12 6 C11.01 6 10.02 6 9 6 C9 6.99 9 7.98 9 9 C11.97 9 14.94 9 18 9 C18 11.97 18 14.94 18 18 C18.99 18 19.98 18 21 18 C21 18.99 21 19.98 21 21 C20.01 21 19.02 21 18 21 C18 21.99 18 22.98 18 24 C14.04 24 10.08 24 6 24 C6 23.01 6 22.02 6 21 C4.02 21 2.04 21 0 21 C0 19.02 0 17.04 0 15 C-0.99 15 -1.98 15 -3 15 C-3 11.04 -3 7.08 -3 3 C-2.01 3 -1.02 3 0 3 C0 2.01 0 1.02 0 0 Z M3 6 C3 7.98 3 9.96 3 12 C3.99 12 4.98 12 6 12 C6 12.99 6 13.98 6 15 C7.98 15 9.96 15 12 15 C12 14.01 12 13.02 12 12 C11.01 12 10.02 12 9 12 C9 11.01 9 10.02 9 9 C8.01 9 7.02 9 6 9 C6 8.01 6 7.02 6 6 C5.01 6 4.02 6 3 6 Z " fill="#A8A8A8" transform="translate(6,9)"/>
<path d="M0 0 C2.97 0 5.94 0 9 0 C9 0.99 9 1.98 9 3 C9.99 3 10.98 3 12 3 C12 3.99 12 4.98 12 6 C11.01 6 10.02 6 9 6 C9 6.99 9 7.98 9 9 C8.01 9 7.02 9 6 9 C6 8.01 6 7.02 6 6 C5.01 6 4.02 6 3 6 C3 7.98 3 9.96 3 12 C3.99 12 4.98 12 6 12 C6 12.99 6 13.98 6 15 C5.01 15 4.02 15 3 15 C3 16.98 3 18.96 3 21 C2.01 21 1.02 21 0 21 C0 19.02 0 17.04 0 15 C-0.99 15 -1.98 15 -3 15 C-3 11.04 -3 7.08 -3 3 C-2.01 3 -1.02 3 0 3 C0 2.01 0 1.02 0 0 Z " fill="#717171" transform="translate(6,9)"/>
<path d="M0 0 C0.99 0 1.98 0 3 0 C3 0.99 3 1.98 3 3 C10.92 3 18.84 3 27 3 C27 2.01 27 1.02 27 0 C27.99 0 28.98 0 30 0 C30 1.98 30 3.96 30 6 C20.1 6 10.2 6 0 6 C0 4.02 0 2.04 0 0 Z " fill="#000000" transform="translate(6,36)"/>
<path d="M0 0 C1.98 0 3.96 0 6 0 C6 0.99 6 1.98 6 3 C6.99 3 7.98 3 9 3 C9 4.98 9 6.96 9 9 C8.01 9 7.02 9 6 9 C6 9.99 6 10.98 6 12 C4.02 12 2.04 12 0 12 C0 11.01 0 10.02 0 9 C-0.99 9 -1.98 9 -3 9 C-3 7.02 -3 5.04 -3 3 C-2.01 3 -1.02 3 0 3 C0 2.01 0 1.02 0 0 Z " fill="#A0A0A0" transform="translate(18,0)"/>
<path d="M0 0 C2.97 0 5.94 0 9 0 C9 0.99 9 1.98 9 3 C7.02 3 5.04 3 3 3 C3 4.98 3 6.96 3 9 C2.01 9 1.02 9 0 9 C0 9.99 0 10.98 0 12 C-0.99 12 -1.98 12 -3 12 C-3 11.01 -3 10.02 -3 9 C-4.98 9 -6.96 9 -9 9 C-9 8.01 -9 7.02 -9 6 C-7.02 6 -5.04 6 -3 6 C-3 5.01 -3 4.02 -3 3 C-2.01 3 -1.02 3 0 3 C0 2.01 0 1.02 0 0 Z " fill="#494949" transform="translate(27,9)"/>
<path d="M0 0 C2.97 0 5.94 0 9 0 C9 0.99 9 1.98 9 3 C8.01 3 7.02 3 6 3 C6 5.97 6 8.94 6 12 C4.02 12 2.04 12 0 12 C0 11.01 0 10.02 0 9 C-0.99 9 -1.98 9 -3 9 C-3 8.01 -3 7.02 -3 6 C-1.02 6 0.96 6 3 6 C3 5.01 3 4.02 3 3 C2.01 3 1.02 3 0 3 C0 2.01 0 1.02 0 0 Z " fill="#A6A6A6" transform="translate(15,18)"/>
<path d="M0 0 C7.92 0 15.84 0 24 0 C24 0.99 24 1.98 24 3 C16.08 3 8.16 3 0 3 C0 2.01 0 1.02 0 0 Z " fill="#A8A8A8" transform="translate(9,36)"/>
<path d="M0 0 C0.99 0 1.98 0 3 0 C3 1.98 3 3.96 3 6 C3.99 6 4.98 6 6 6 C6 6.99 6 7.98 6 9 C5.01 9 4.02 9 3 9 C3 10.98 3 12.96 3 15 C2.01 15 1.02 15 0 15 C0 10.05 0 5.1 0 0 Z " fill="#959595" transform="translate(6,15)"/>
<path d="M0 0 C0.99 0 1.98 0 3 0 C3 0.99 3 1.98 3 3 C3.99 3 4.98 3 6 3 C6 3.99 6 4.98 6 6 C6.99 6 7.98 6 9 6 C9 6.99 9 7.98 9 9 C7.02 9 5.04 9 3 9 C3 8.01 3 7.02 3 6 C2.01 6 1.02 6 0 6 C0 4.02 0 2.04 0 0 Z " fill="#C7C7C7" transform="translate(9,24)"/>
<path d="M0 0 C0.99 0 1.98 0 3 0 C3 3.96 3 7.92 3 12 C2.01 12 1.02 12 0 12 C0 8.04 0 4.08 0 0 Z " fill="#000000" transform="translate(36,12)"/>
<path d="M0 0 C0.99 0 1.98 0 3 0 C3 3.96 3 7.92 3 12 C2.01 12 1.02 12 0 12 C0 8.04 0 4.08 0 0 Z " fill="#000000" transform="translate(3,12)"/>
<path d="M0 0 C2.97 0 5.94 0 9 0 C9 0.99 9 1.98 9 3 C6.03 3 3.06 3 0 3 C0 2.01 0 1.02 0 0 Z " fill="#8A8A8A" transform="translate(24,36)"/>
<path d="M0 0 C2.97 0 5.94 0 9 0 C9 0.99 9 1.98 9 3 C6.03 3 3.06 3 0 3 C0 2.01 0 1.02 0 0 Z " fill="#000000" transform="translate(27,9)"/>
<path d="M0 0 C2.97 0 5.94 0 9 0 C9 0.99 9 1.98 9 3 C6.03 3 3.06 3 0 3 C0 2.01 0 1.02 0 0 Z " fill="#000000" transform="translate(6,9)"/>
<path d="M0 0 C1.98 0 3.96 0 6 0 C6 0.99 6 1.98 6 3 C4.02 3 2.04 3 0 3 C0 2.01 0 1.02 0 0 Z " fill="#C7C7C7" transform="translate(9,36)"/>
<path d="M0 0 C0.99 0 1.98 0 3 0 C3 1.98 3 3.96 3 6 C2.01 6 1.02 6 0 6 C0 4.02 0 2.04 0 0 Z " fill="#000000" transform="translate(33,24)"/>
<path d="M0 0 C1.98 0 3.96 0 6 0 C6 0.99 6 1.98 6 3 C4.02 3 2.04 3 0 3 C0 2.01 0 1.02 0 0 Z " fill="#000000" transform="translate(24,24)"/>
<path d="M0 0 C1.98 0 3.96 0 6 0 C6 0.99 6 1.98 6 3 C4.02 3 2.04 3 0 3 C0 2.01 0 1.02 0 0 Z " fill="#000000" transform="translate(12,24)"/>
<path d="M0 0 C0.99 0 1.98 0 3 0 C3 1.98 3 3.96 3 6 C2.01 6 1.02 6 0 6 C0 4.02 0 2.04 0 0 Z " fill="#000000" transform="translate(6,24)"/>
<path d="M0 0 C1.98 0 3.96 0 6 0 C6 0.99 6 1.98 6 3 C4.02 3 2.04 3 0 3 C0 2.01 0 1.02 0 0 Z " fill="#000000" transform="translate(18,15)"/>
<path d="M0 0 C1.98 0 3.96 0 6 0 C6 0.99 6 1.98 6 3 C4.02 3 2.04 3 0 3 C0 2.01 0 1.02 0 0 Z " fill="#000000" transform="translate(18,9)"/>
<path d="M0 0 C0.99 0 1.98 0 3 0 C3 1.98 3 3.96 3 6 C2.01 6 1.02 6 0 6 C0 4.02 0 2.04 0 0 Z " fill="#000000" transform="translate(24,3)"/>
<path d="M0 0 C0.99 0 1.98 0 3 0 C3 1.98 3 3.96 3 6 C2.01 6 1.02 6 0 6 C0 4.02 0 2.04 0 0 Z " fill="#000000" transform="translate(15,3)"/>
<path d="M0 0 C1.98 0 3.96 0 6 0 C6 0.99 6 1.98 6 3 C4.02 3 2.04 3 0 3 C0 2.01 0 1.02 0 0 Z " fill="#000000" transform="translate(18,0)"/>
</svg>
