<?xml version="1.0" encoding="UTF-8"?>
<svg version="1.1" xmlns="http://www.w3.org/2000/svg" width="42" height="42">
<path d="M0 0 C3.96 0 7.92 0 12 0 C12 0.99 12 1.98 12 3 C12.99 3 13.98 3 15 3 C15 5.97 15 8.94 15 12 C14.01 12 13.02 12 12 12 C12 12.99 12 13.98 12 15 C12.99 15 13.98 15 15 15 C15 16.98 15 18.96 15 21 C14.01 21 13.02 21 12 21 C12 21.99 12 22.98 12 24 C12.99 24 13.98 24 15 24 C15 24.99 15 25.98 15 27 C15.99 27 16.98 27 18 27 C18 29.97 18 32.94 18 36 C10.08 36 2.16 36 -6 36 C-6 33.03 -6 30.06 -6 27 C-5.01 27 -4.02 27 -3 27 C-3 26.01 -3 25.02 -3 24 C-2.01 24 -1.02 24 0 24 C0 23.01 0 22.02 0 21 C-0.99 21 -1.98 21 -3 21 C-3 19.02 -3 17.04 -3 15 C-2.01 15 -1.02 15 0 15 C0 14.01 0 13.02 0 12 C-0.99 12 -1.98 12 -3 12 C-3 9.03 -3 6.06 -3 3 C-2.01 3 -1.02 3 0 3 C0 2.01 0 1.02 0 0 Z " fill="#A0A0A0" transform="translate(15,6)"/>
<path d="M0 0 C3.96 0 7.92 0 12 0 C12 0.99 12 1.98 12 3 C12.99 3 13.98 3 15 3 C15 5.97 15 8.94 15 12 C14.01 12 13.02 12 12 12 C12 12.99 12 13.98 12 15 C12.99 15 13.98 15 15 15 C15 16.98 15 18.96 15 21 C14.01 21 13.02 21 12 21 C12 21.99 12 22.98 12 24 C11.01 24 10.02 24 9 24 C9 17.07 9 10.14 9 3 C6.03 3 3.06 3 0 3 C0 2.01 0 1.02 0 0 Z " fill="#676767" transform="translate(15,6)"/>
<path d="M0 0 C0.99 0 1.98 0 3 0 C3 1.98 3 3.96 3 6 C8.94 6 14.88 6 21 6 C21 4.02 21 2.04 21 0 C21.99 0 22.98 0 24 0 C24 2.97 24 5.94 24 9 C16.08 9 8.16 9 0 9 C0 6.03 0 3.06 0 0 Z " fill="#000000" transform="translate(9,33)"/>
<path d="M0 0 C1.98 0 3.96 0 6 0 C6 1.98 6 3.96 6 6 C5.01 6 4.02 6 3 6 C3 6.99 3 7.98 3 9 C2.01 9 1.02 9 0 9 C0 6.03 0 3.06 0 0 Z " fill="#5C5C5C" transform="translate(24,21)"/>
<path d="M0 0 C2.97 0 5.94 0 9 0 C9 0.99 9 1.98 9 3 C8.01 3 7.02 3 6 3 C6 3.99 6 4.98 6 6 C5.01 6 4.02 6 3 6 C3 5.01 3 4.02 3 3 C2.01 3 1.02 3 0 3 C0 2.01 0 1.02 0 0 Z " fill="#868686" transform="translate(12,30)"/>
<path d="M0 0 C3.96 0 7.92 0 12 0 C12 0.99 12 1.98 12 3 C8.04 3 4.08 3 0 3 C0 2.01 0 1.02 0 0 Z " fill="#000000" transform="translate(15,6)"/>
<path d="M0 0 C0.99 0 1.98 0 3 0 C3 2.97 3 5.94 3 9 C2.01 9 1.02 9 0 9 C0 6.03 0 3.06 0 0 Z " fill="#5C5C5C" transform="translate(27,30)"/>
<path d="M0 0 C0.99 0 1.98 0 3 0 C3 2.97 3 5.94 3 9 C2.01 9 1.02 9 0 9 C0 6.03 0 3.06 0 0 Z " fill="#000000" transform="translate(27,9)"/>
<path d="M0 0 C2.97 0 5.94 0 9 0 C9 0.99 9 1.98 9 3 C6.03 3 3.06 3 0 3 C0 2.01 0 1.02 0 0 Z " fill="#BEBEBE" transform="translate(15,9)"/>
<path d="M0 0 C0.99 0 1.98 0 3 0 C3 2.97 3 5.94 3 9 C2.01 9 1.02 9 0 9 C0 6.03 0 3.06 0 0 Z " fill="#000000" transform="translate(12,9)"/>
<path d="M0 0 C0.99 0 1.98 0 3 0 C3 1.98 3 3.96 3 6 C2.01 6 1.02 6 0 6 C0 4.02 0 2.04 0 0 Z " fill="#C4C4C4" transform="translate(12,33)"/>
<path d="M0 0 C0.99 0 1.98 0 3 0 C3 1.98 3 3.96 3 6 C2.01 6 1.02 6 0 6 C0 4.02 0 2.04 0 0 Z " fill="#000000" transform="translate(27,21)"/>
<path d="M0 0 C0.99 0 1.98 0 3 0 C3 1.98 3 3.96 3 6 C2.01 6 1.02 6 0 6 C0 4.02 0 2.04 0 0 Z " fill="#000000" transform="translate(12,21)"/>
</svg>
