<?xml version="1.0" encoding="UTF-8"?>
<svg version="1.1" xmlns="http://www.w3.org/2000/svg" width="42" height="42">
<path d="M0 0 C1.98 0 3.96 0 6 0 C6 0.99 6 1.98 6 3 C6.99 3 7.98 3 9 3 C9 3.99 9 4.98 9 6 C9.99 6 10.98 6 12 6 C12 5.01 12 4.02 12 3 C12.99 3 13.98 3 15 3 C15 2.01 15 1.02 15 0 C16.98 0 18.96 0 21 0 C21 0.99 21 1.98 21 3 C21.99 3 22.98 3 24 3 C24 3.99 24 4.98 24 6 C24.99 6 25.98 6 27 6 C27 5.01 27 4.02 27 3 C27.99 3 28.98 3 30 3 C30 2.01 30 1.02 30 0 C31.98 0 33.96 0 36 0 C36 2.97 36 5.94 36 9 C35.01 9 34.02 9 33 9 C33 10.98 33 12.96 33 15 C32.01 15 31.02 15 30 15 C30 16.98 30 18.96 30 21 C30.99 21 31.98 21 33 21 C33 22.98 33 24.96 33 27 C23.1 27 13.2 27 3 27 C3 25.02 3 23.04 3 21 C3.99 21 4.98 21 6 21 C6 19.02 6 17.04 6 15 C5.01 15 4.02 15 3 15 C3 13.02 3 11.04 3 9 C2.01 9 1.02 9 0 9 C0 6.03 0 3.06 0 0 Z " fill="#000000" transform="translate(3,15)"/>
<path d="M0 0 C1.98 0 3.96 0 6 0 C6 0.99 6 1.98 6 3 C6.99 3 7.98 3 9 3 C9 3.99 9 4.98 9 6 C9.99 6 10.98 6 12 6 C12 5.01 12 4.02 12 3 C12.99 3 13.98 3 15 3 C15 2.01 15 1.02 15 0 C16.98 0 18.96 0 21 0 C21 0.99 21 1.98 21 3 C21.99 3 22.98 3 24 3 C24 5.97 24 8.94 24 12 C23.01 12 22.02 12 21 12 C21 12.99 21 13.98 21 15 C20.01 15 19.02 15 18 15 C18 15.99 18 16.98 18 18 C15.03 18 12.06 18 9 18 C9 17.01 9 16.02 9 15 C7.02 15 5.04 15 3 15 C3 13.02 3 11.04 3 9 C2.01 9 1.02 9 0 9 C0 6.03 0 3.06 0 0 Z " fill="#B6B6B6" transform="translate(3,15)"/>
<path d="M0 0 C1.98 0 3.96 0 6 0 C6 2.97 6 5.94 6 9 C5.01 9 4.02 9 3 9 C3 10.98 3 12.96 3 15 C1.02 15 -0.96 15 -3 15 C-3 15.99 -3 16.98 -3 18 C-5.97 18 -8.94 18 -12 18 C-12 17.01 -12 16.02 -12 15 C-11.01 15 -10.02 15 -9 15 C-9 14.01 -9 13.02 -9 12 C-8.01 12 -7.02 12 -6 12 C-6 10.02 -6 8.04 -6 6 C-5.01 6 -4.02 6 -3 6 C-3 5.01 -3 4.02 -3 3 C-2.01 3 -1.02 3 0 3 C0 2.01 0 1.02 0 0 Z " fill="#747474" transform="translate(33,15)"/>
<path d="M0 0 C1.98 0 3.96 0 6 0 C6 2.97 6 5.94 6 9 C5.01 9 4.02 9 3 9 C3 9.99 3 10.98 3 12 C2.01 12 1.02 12 0 12 C0 12.99 0 13.98 0 15 C-2.97 15 -5.94 15 -9 15 C-9 12.03 -9 9.06 -9 6 C-6.03 6 -3.06 6 0 6 C0 4.02 0 2.04 0 0 Z " fill="#9B9B9B" transform="translate(21,18)"/>
<path d="M0 0 C0.99 0 1.98 0 3 0 C3 0.99 3 1.98 3 3 C10.92 3 18.84 3 27 3 C27 2.01 27 1.02 27 0 C27.99 0 28.98 0 30 0 C30 1.98 30 3.96 30 6 C20.1 6 10.2 6 0 6 C0 4.02 0 2.04 0 0 Z " fill="#000000" transform="translate(6,36)"/>
<path d="M0 0 C1.98 0 3.96 0 6 0 C6 0.99 6 1.98 6 3 C6.99 3 7.98 3 9 3 C9 4.98 9 6.96 9 9 C8.01 9 7.02 9 6 9 C6 9.99 6 10.98 6 12 C4.02 12 2.04 12 0 12 C0 11.01 0 10.02 0 9 C-0.99 9 -1.98 9 -3 9 C-3 7.02 -3 5.04 -3 3 C-2.01 3 -1.02 3 0 3 C0 2.01 0 1.02 0 0 Z " fill="#A0A0A0" transform="translate(18,0)"/>
<path d="M0 0 C7.92 0 15.84 0 24 0 C24 0.99 24 1.98 24 3 C16.08 3 8.16 3 0 3 C0 2.01 0 1.02 0 0 Z " fill="#A8A8A8" transform="translate(9,36)"/>
<path d="M0 0 C1.98 0 3.96 0 6 0 C6 0.99 6 1.98 6 3 C5.01 3 4.02 3 3 3 C3 4.98 3 6.96 3 9 C0.03 9 -2.94 9 -6 9 C-6 8.01 -6 7.02 -6 6 C-5.01 6 -4.02 6 -3 6 C-3 5.01 -3 4.02 -3 3 C-2.01 3 -1.02 3 0 3 C0 2.01 0 1.02 0 0 Z " fill="#777777" transform="translate(18,15)"/>
<path d="M0 0 C1.98 0 3.96 0 6 0 C6 2.97 6 5.94 6 9 C5.01 9 4.02 9 3 9 C3 7.02 3 5.04 3 3 C2.01 3 1.02 3 0 3 C0 2.01 0 1.02 0 0 Z " fill="#000000" transform="translate(33,15)"/>
<path d="M0 0 C1.98 0 3.96 0 6 0 C6 0.99 6 1.98 6 3 C5.01 3 4.02 3 3 3 C3 4.98 3 6.96 3 9 C2.01 9 1.02 9 0 9 C0 6.03 0 3.06 0 0 Z " fill="#000000" transform="translate(3,15)"/>
<path d="M0 0 C2.97 0 5.94 0 9 0 C9 0.99 9 1.98 9 3 C6.03 3 3.06 3 0 3 C0 2.01 0 1.02 0 0 Z " fill="#8A8A8A" transform="translate(24,36)"/>
<path d="M0 0 C0.99 0 1.98 0 3 0 C3 2.97 3 5.94 3 9 C2.01 9 1.02 9 0 9 C0 6.03 0 3.06 0 0 Z " fill="#C7C7C7" transform="translate(12,24)"/>
<path d="M0 0 C1.98 0 3.96 0 6 0 C6 0.99 6 1.98 6 3 C4.02 3 2.04 3 0 3 C0 2.01 0 1.02 0 0 Z " fill="#D1D1D1" transform="translate(9,36)"/>
<path d="M0 0 C0.99 0 1.98 0 3 0 C3 1.98 3 3.96 3 6 C2.01 6 1.02 6 0 6 C0 4.02 0 2.04 0 0 Z " fill="#000000" transform="translate(33,24)"/>
<path d="M0 0 C0.99 0 1.98 0 3 0 C3 1.98 3 3.96 3 6 C2.01 6 1.02 6 0 6 C0 4.02 0 2.04 0 0 Z " fill="#000000" transform="translate(6,24)"/>
<path d="M0 0 C1.98 0 3.96 0 6 0 C6 0.99 6 1.98 6 3 C4.02 3 2.04 3 0 3 C0 2.01 0 1.02 0 0 Z " fill="#000000" transform="translate(18,15)"/>
<path d="M0 0 C1.98 0 3.96 0 6 0 C6 0.99 6 1.98 6 3 C4.02 3 2.04 3 0 3 C0 2.01 0 1.02 0 0 Z " fill="#000000" transform="translate(18,9)"/>
<path d="M0 0 C0.99 0 1.98 0 3 0 C3 1.98 3 3.96 3 6 C2.01 6 1.02 6 0 6 C0 4.02 0 2.04 0 0 Z " fill="#000000" transform="translate(24,3)"/>
<path d="M0 0 C0.99 0 1.98 0 3 0 C3 1.98 3 3.96 3 6 C2.01 6 1.02 6 0 6 C0 4.02 0 2.04 0 0 Z " fill="#000000" transform="translate(15,3)"/>
<path d="M0 0 C1.98 0 3.96 0 6 0 C6 0.99 6 1.98 6 3 C4.02 3 2.04 3 0 3 C0 2.01 0 1.02 0 0 Z " fill="#000000" transform="translate(18,0)"/>
<path d="M0 0 C0.99 0 1.98 0 3 0 C3 0.99 3 1.98 3 3 C2.01 3 1.02 3 0 3 C0 2.01 0 1.02 0 0 Z " fill="#000000" transform="translate(39,12)"/>
<path d="M0 0 C0.99 0 1.98 0 3 0 C3 0.99 3 1.98 3 3 C2.01 3 1.02 3 0 3 C0 2.01 0 1.02 0 0 Z " fill="#000000" transform="translate(0,12)"/>
</svg>
