<?xml version="1.0" encoding="UTF-8"?>
<svg version="1.1" xmlns="http://www.w3.org/2000/svg" width="42" height="42">
<path d="M0 0 C3.96 0 7.92 0 12 0 C12 0.99 12 1.98 12 3 C14.97 3 17.94 3 21 3 C21 3.99 21 4.98 21 6 C21.99 6 22.98 6 24 6 C24 6.99 24 7.98 24 9 C24.99 9 25.98 9 27 9 C27 14.94 27 20.88 27 27 C26.01 27 25.02 27 24 27 C24 29.97 24 32.94 24 36 C24.99 36 25.98 36 27 36 C27 37.98 27 39.96 27 42 C17.1 42 7.2 42 -3 42 C-3 40.02 -3 38.04 -3 36 C-2.01 36 -1.02 36 0 36 C0 34.02 0 32.04 0 30 C0.99 30 1.98 30 3 30 C3 29.01 3 28.02 3 27 C3.99 27 4.98 27 6 27 C6 26.01 6 25.02 6 24 C6.99 24 7.98 24 9 24 C9 23.01 9 22.02 9 21 C7.02 21 5.04 21 3 21 C3 21.99 3 22.98 3 24 C1.02 24 -0.96 24 -3 24 C-3 23.01 -3 22.02 -3 21 C-3.99 21 -4.98 21 -6 21 C-6 19.02 -6 17.04 -6 15 C-5.01 15 -4.02 15 -3 15 C-3 14.01 -3 13.02 -3 12 C-2.01 12 -1.02 12 0 12 C0 11.01 0 10.02 0 9 C0.99 9 1.98 9 3 9 C3 8.01 3 7.02 3 6 C2.01 6 1.02 6 0 6 C0 4.02 0 2.04 0 0 Z " fill="#9A9A9A" transform="translate(9,0)"/>
<path d="M0 0 C0.99 0 1.98 0 3 0 C3 0.99 3 1.98 3 3 C3.99 3 4.98 3 6 3 C6 8.94 6 14.88 6 21 C5.01 21 4.02 21 3 21 C3 23.97 3 26.94 3 30 C3.99 30 4.98 30 6 30 C6 31.98 6 33.96 6 36 C-3.9 36 -13.8 36 -24 36 C-24 34.02 -24 32.04 -24 30 C-23.01 30 -22.02 30 -21 30 C-21 28.02 -21 26.04 -21 24 C-20.01 24 -19.02 24 -18 24 C-18 24.99 -18 25.98 -18 27 C-12.06 27 -6.12 27 0 27 C0 18.09 0 9.18 0 0 Z " fill="#000000" transform="translate(30,6)"/>
<path d="M0 0 C2.97 0 5.94 0 9 0 C9 8.91 9 17.82 9 27 C3.06 27 -2.88 27 -9 27 C-9 25.02 -9 23.04 -9 21 C-8.01 21 -7.02 21 -6 21 C-6 20.01 -6 19.02 -6 18 C-4.02 18 -2.04 18 0 18 C0 16.02 0 14.04 0 12 C0.99 12 1.98 12 3 12 C3 11.01 3 10.02 3 9 C2.01 9 1.02 9 0 9 C0 6.03 0 3.06 0 0 Z " fill="#A6A6A6" transform="translate(21,6)"/>
<path d="M0 0 C0.99 0 1.98 0 3 0 C3 0.99 3 1.98 3 3 C3.99 3 4.98 3 6 3 C6 8.94 6 14.88 6 21 C4.02 21 2.04 21 0 21 C0 14.07 0 7.14 0 0 Z " fill="#767676" transform="translate(30,6)"/>
<path d="M0 0 C0.99 0 1.98 0 3 0 C3 0.99 3 1.98 3 3 C10.92 3 18.84 3 27 3 C27 2.01 27 1.02 27 0 C27.99 0 28.98 0 30 0 C30 1.98 30 3.96 30 6 C20.1 6 10.2 6 0 6 C0 4.02 0 2.04 0 0 Z " fill="#000000" transform="translate(6,36)"/>
<path d="M0 0 C0.99 0 1.98 0 3 0 C3 2.97 3 5.94 3 9 C2.01 9 1.02 9 0 9 C0 9.99 0 10.98 0 12 C-0.99 12 -1.98 12 -3 12 C-3 12.99 -3 13.98 -3 15 C-4.98 15 -6.96 15 -9 15 C-9 13.02 -9 11.04 -9 9 C-8.01 9 -7.02 9 -6 9 C-6 8.01 -6 7.02 -6 6 C-4.02 6 -2.04 6 0 6 C0 4.02 0 2.04 0 0 Z " fill="#8F8F8F" transform="translate(21,18)"/>
<path d="M0 0 C7.92 0 15.84 0 24 0 C24 0.99 24 1.98 24 3 C16.08 3 8.16 3 0 3 C0 2.01 0 1.02 0 0 Z " fill="#A8A8A8" transform="translate(9,36)"/>
<path d="M0 0 C0.99 0 1.98 0 3 0 C3 5.94 3 11.88 3 18 C2.01 18 1.02 18 0 18 C0 12.06 0 6.12 0 0 Z " fill="#000000" transform="translate(33,9)"/>
<path d="M0 0 C3.96 0 7.92 0 12 0 C12 0.99 12 1.98 12 3 C9.03 3 6.06 3 3 3 C3 3.99 3 4.98 3 6 C2.01 6 1.02 6 0 6 C0 4.02 0 2.04 0 0 Z " fill="#000000" transform="translate(9,0)"/>
<path d="M0 0 C2.97 0 5.94 0 9 0 C9 1.98 9 3.96 9 6 C8.01 6 7.02 6 6 6 C6 5.01 6 4.02 6 3 C4.02 3 2.04 3 0 3 C0 2.01 0 1.02 0 0 Z " fill="#000000" transform="translate(12,18)"/>
<path d="M0 0 C2.97 0 5.94 0 9 0 C9 0.99 9 1.98 9 3 C6.03 3 3.06 3 0 3 C0 2.01 0 1.02 0 0 Z " fill="#8A8A8A" transform="translate(24,36)"/>
<path d="M0 0 C0.99 0 1.98 0 3 0 C3 1.98 3 3.96 3 6 C1.02 6 -0.96 6 -3 6 C-3 5.01 -3 4.02 -3 3 C-2.01 3 -1.02 3 0 3 C0 2.01 0 1.02 0 0 Z " fill="#8A8A8A" transform="translate(27,27)"/>
<path d="M0 0 C2.97 0 5.94 0 9 0 C9 0.99 9 1.98 9 3 C6.03 3 3.06 3 0 3 C0 2.01 0 1.02 0 0 Z " fill="#000000" transform="translate(21,3)"/>
<path d="M0 0 C1.98 0 3.96 0 6 0 C6 0.99 6 1.98 6 3 C4.02 3 2.04 3 0 3 C0 2.01 0 1.02 0 0 Z " fill="#BBBBBB" transform="translate(9,36)"/>
<path d="M0 0 C1.98 0 3.96 0 6 0 C6 0.99 6 1.98 6 3 C4.02 3 2.04 3 0 3 C0 2.01 0 1.02 0 0 Z " fill="#000000" transform="translate(6,21)"/>
<path d="M0 0 C0.99 0 1.98 0 3 0 C3 1.98 3 3.96 3 6 C2.01 6 1.02 6 0 6 C0 4.02 0 2.04 0 0 Z " fill="#000000" transform="translate(3,15)"/>
<path d="M0 0 C0.99 0 1.98 0 3 0 C3 1.98 3 3.96 3 6 C2.01 6 1.02 6 0 6 C0 4.02 0 2.04 0 0 Z " fill="#B0B0B0" transform="translate(21,9)"/>
</svg>
